<svg xmlns="http://www.w3.org/2000/svg" xmlns:xlink="http://www.w3.org/1999/xlink" preserveAspectRatio="xMidYMid" width="546" height="89" viewBox="0 0 546 89">
  <defs>
    <style>

      .cls-2 {
        fill: #ffffff;
      }
    </style>
  </defs>
  <path d="M534.702,87.128 C528.453,87.128 523.397,82.145 523.397,75.987 C523.397,69.831 528.453,64.848 534.702,64.848 C540.941,64.848 546.000,69.831 546.000,75.987 C546.000,82.145 540.941,87.128 534.702,87.128 ZM534.702,66.480 C529.449,66.480 525.207,70.758 525.207,75.987 C525.207,81.223 529.449,85.500 534.702,85.500 C539.945,85.500 544.223,81.223 544.223,75.987 C544.223,70.758 539.945,66.480 534.702,66.480 ZM539.443,82.088 C539.443,82.088 537.446,82.088 537.446,82.088 C537.446,82.088 534.605,77.095 534.605,77.095 C534.605,77.095 532.729,77.095 532.729,77.095 C532.729,77.095 532.729,82.088 532.729,82.088 C532.729,82.088 531.013,82.088 531.013,82.088 C531.013,82.088 531.013,69.864 531.013,69.864 C531.013,69.864 535.228,69.864 535.228,69.864 C537.383,69.864 539.131,71.467 539.131,73.527 C539.131,75.310 538.008,76.419 536.484,76.878 C536.484,76.878 539.443,82.088 539.443,82.088 ZM537.383,73.527 C537.383,72.294 536.418,71.372 535.039,71.372 C535.039,71.372 532.729,71.372 532.729,71.372 C532.729,71.372 532.729,75.650 532.729,75.650 C532.729,75.650 535.039,75.650 535.039,75.650 C536.418,75.650 537.383,74.758 537.383,73.527 ZM455.046,26.261 C455.046,26.261 455.046,87.060 455.046,87.060 C455.046,87.060 439.692,87.060 439.692,87.060 C439.692,87.060 439.692,1.814 439.692,1.814 C439.692,1.814 455.572,1.814 455.572,1.814 C455.572,1.814 500.444,62.997 500.444,62.997 C500.444,62.997 500.444,1.680 500.444,1.680 C500.444,1.680 515.664,1.680 515.664,1.680 C515.664,1.680 515.664,87.060 515.664,87.060 C515.664,87.060 499.525,87.060 499.525,87.060 C499.525,87.060 455.046,26.261 455.046,26.261 ZM384.326,88.871 C357.684,88.871 339.580,67.912 339.580,44.497 C339.580,21.216 357.684,0.000 384.326,0.000 C410.693,0.000 428.541,20.829 428.541,44.371 C428.541,67.267 410.831,88.871 384.326,88.871 ZM384.326,13.454 C368.446,13.454 356.904,26.519 356.904,44.371 C356.904,62.220 368.446,75.416 384.326,75.416 C400.072,75.416 411.093,61.833 411.093,44.371 C411.093,27.296 400.072,13.454 384.326,13.454 ZM312.799,87.059 C312.799,87.059 296.927,87.059 296.927,87.059 C296.927,87.059 296.927,15.008 296.927,15.008 C296.927,15.008 271.474,15.008 271.474,15.008 C271.474,15.008 271.474,1.680 271.474,1.680 C271.474,1.680 338.387,1.680 338.387,1.680 C338.387,1.680 338.387,15.008 338.387,15.008 C338.387,15.008 312.799,15.008 312.799,15.008 C312.799,15.008 312.799,87.059 312.799,87.059 ZM246.935,23.802 C246.935,23.802 215.182,89.000 215.182,89.000 C215.182,89.000 187.762,23.544 187.762,23.544 C187.762,23.544 182.904,87.060 182.904,87.060 C182.904,87.060 168.475,87.060 168.475,87.060 C168.475,87.060 175.036,1.814 175.036,1.814 C175.036,1.814 192.746,1.814 192.746,1.814 C201.804,21.346 209.146,38.292 216.888,57.178 C225.811,38.160 234.210,20.698 243.527,1.814 C243.527,1.814 259.532,1.814 259.532,1.814 C259.532,1.814 266.092,87.060 266.092,87.060 C266.092,87.060 251.005,87.060 251.005,87.060 C251.005,87.060 246.935,23.802 246.935,23.802 ZM115.989,88.871 C89.352,88.871 71.243,67.912 71.243,44.497 C71.243,21.216 89.352,0.000 115.989,0.000 C142.361,0.000 160.209,20.829 160.209,44.371 C160.209,67.267 142.492,88.871 115.989,88.871 ZM115.989,13.454 C100.112,13.454 88.567,26.519 88.567,44.371 C88.567,62.220 100.112,75.416 115.989,75.416 C131.730,75.416 142.751,61.833 142.751,44.371 C142.751,27.296 131.730,13.454 115.989,13.454 ZM63.507,62.869 C63.507,77.356 51.436,87.061 34.117,87.061 C34.117,87.061 0.000,87.061 0.000,87.061 C0.000,87.061 0.000,2.331 0.000,2.331 C10.234,1.681 20.470,1.168 30.837,1.168 C50.382,1.168 58.260,11.773 58.260,22.898 C58.260,30.275 54.451,38.422 47.238,41.139 C57.077,42.432 63.507,51.745 63.507,62.869 ZM28.738,13.843 C28.738,13.843 28.476,13.843 28.476,13.843 C28.476,13.843 15.877,13.972 15.877,13.972 C15.877,13.972 15.877,35.576 15.877,35.576 C15.877,35.576 27.294,35.576 27.294,35.576 C37.661,35.576 41.333,31.178 41.333,24.712 C41.333,18.756 37.002,13.843 28.738,13.843 ZM30.047,48.251 C30.047,48.251 15.877,48.251 15.877,48.251 C15.877,48.251 15.877,74.383 15.877,74.383 C15.877,74.383 29.262,74.383 29.262,74.383 C41.723,74.383 46.579,70.375 46.579,61.189 C46.579,52.521 40.284,48.251 30.047,48.251 Z" id="path-1" class="cls-2" fill-rule="evenodd"/>
</svg>
