<svg xmlns="http://www.w3.org/2000/svg" xmlns:xlink="http://www.w3.org/1999/xlink" preserveAspectRatio="xMidYMid" width="28" height="28" viewBox="0 0 28 28">
  <defs>
    <style>

      .cls-2 {
        fill: #ffffff;
        opacity: 1;
      }
    </style>
  </defs>
  <path d="M28.000,17.000 C28.000,17.000 17.000,17.000 17.000,17.000 C17.000,17.000 17.000,28.000 17.000,28.000 C17.000,28.000 11.000,28.000 11.000,28.000 C11.000,28.000 11.000,17.000 11.000,17.000 C11.000,17.000 -0.000,17.000 -0.000,17.000 C-0.000,17.000 -0.000,11.000 -0.000,11.000 C-0.000,11.000 11.000,11.000 11.000,11.000 C11.000,11.000 11.000,-0.000 11.000,-0.000 C11.000,-0.000 17.000,-0.000 17.000,-0.000 C17.000,-0.000 17.000,11.000 17.000,11.000 C17.000,11.000 28.000,11.000 28.000,11.000 C28.000,11.000 28.000,17.000 28.000,17.000 Z" id="path-1" class="cls-2" fill-rule="evenodd"/>
</svg>
