<svg xmlns="http://www.w3.org/2000/svg" xmlns:xlink="http://www.w3.org/1999/xlink" preserveAspectRatio="xMidYMid" width="29" height="28" viewBox="0 0 29 28">
  <defs>
    <style>

      .cls-2 {
        fill: #ffffff;
        opacity: 0.3;
      }
    </style>
  </defs>
  <path d="M14.500,23.216 C14.500,23.216 5.538,27.997 5.538,27.997 C5.538,27.997 7.250,17.869 7.250,17.869 C7.250,17.869 -0.000,10.696 -0.000,10.696 C-0.000,10.696 10.019,9.219 10.019,9.219 C10.019,9.219 14.500,0.004 14.500,0.004 C14.500,0.004 18.981,9.219 18.981,9.219 C18.981,9.219 29.000,10.696 29.000,10.696 C29.000,10.696 21.750,17.869 21.750,17.869 C21.750,17.869 23.462,27.997 23.462,27.997 C23.462,27.997 14.500,23.216 14.500,23.216 Z" id="path-1" class="cls-2" fill-rule="evenodd"/>
</svg>
